<svg id="_1946372" data-name="1946372" xmlns="http://www.w3.org/2000/svg" width="24.033" height="24.033" viewBox="0 0 24.033 24.033">
  <path id="Path_30" data-name="Path 30" d="M20.513,3.52A12.017,12.017,0,0,0,3.519,20.514,12.017,12.017,0,0,0,20.513,3.52Zm0,0" transform="translate(0.001)" fill="#54e360"/>
  <path id="Path_31" data-name="Path 31" d="M264.5,3.52A11.938,11.938,0,0,0,256,0V24.033A12.017,12.017,0,0,0,264.5,3.52Zm0,0" transform="translate(-243.983)" fill="#1fbf66"/>
  <path id="Path_32" data-name="Path 32" d="M125.236,116.994h-3.821v-3.821a.7.7,0,0,0-.7-.7h-3.017a.7.7,0,0,0-.7.7v3.821h-3.821a.7.7,0,0,0-.7.7v3.017a.7.7,0,0,0,.7.7h3.821v3.821a.7.7,0,0,0,.7.7h3.017a.7.7,0,0,0,.7-.7v-3.821h3.821a.7.7,0,0,0,.7-.7V117.7A.7.7,0,0,0,125.236,116.994Zm0,0" transform="translate(-107.186 -107.189)" fill="#e7f0ef"/>
  <path id="Path_33" data-name="Path 33" d="M262.033,116.994h-3.821v-3.821a.7.7,0,0,0-.7-.7H256v13.475h1.508a.7.7,0,0,0,.7-.7v-3.821h3.821a.7.7,0,0,0,.7-.7V117.7a.7.7,0,0,0-.7-.7Zm0,0" transform="translate(-243.983 -107.189)" fill="#c5e1e6"/>
</svg>
