<svg xmlns="http://www.w3.org/2000/svg" width="24.437" height="24.241" viewBox="0 0 24.437 24.241">
  <g id="_616450" data-name="616450" transform="translate(0.403)">
    <circle id="Ellipse_1" data-name="Ellipse 1" cx="12" cy="12" r="12" transform="translate(-0.403 0.241)" fill="#87dcff"/>
    <path id="Path_36" data-name="Path 36" d="M113.561,1.783l-.5,1.546a1.163,1.163,0,0,1-.8.766l-1.244.341a1.163,1.163,0,0,1-.308.041h-1.862a.388.388,0,0,0-.384.336l-.214,1.6-1.189.062a.388.388,0,0,0-.367.372l-.041,1.034a.388.388,0,0,0,.42.4l.792-.066a.7.7,0,0,0,.509-.289l.733-1.022,1.567-.056a.468.468,0,0,1,.45.638,2.819,2.819,0,0,0-.274.823.388.388,0,0,0,.77.066c.026-.089.145-.4.3-.792a.218.218,0,0,1,.385-.041l.1.152a.775.775,0,0,0,.854.32l.692-.192a.627.627,0,0,0,.419-.383l.133-.352a.775.775,0,0,1,.569-.486l.447-.092a.566.566,0,0,1,.68.428.541.541,0,0,1-.471.632l-1.079.029a.412.412,0,0,0-.4.4l0,.1a.216.216,0,0,0,.118.2l.62.316a.44.44,0,0,1,.164.64h0a.44.44,0,0,1-.364.193h-3.271a.682.682,0,0,1-.25-.048l-2.745-1.081a.569.569,0,0,0-.594.111l-2.6,2.4a.775.775,0,0,0-.227.755l.529,2.147a.775.775,0,0,0,.711.589l2.929.157a1.163,1.163,0,0,1,1.1,1.055l.222,2.412a1.514,1.514,0,0,0,.143.518,16.17,16.17,0,0,0,1.142,2.09,1.446,1.446,0,0,0,1.769.23l2.381-1.949a1.163,1.163,0,0,0,.368-.692l.279-1.914,1.891-2.084a.387.387,0,0,0-.133-.615l-.034.023a1.026,1.026,0,0,1-.48.17c-.03,0-.061,0-.091,0a1.018,1.018,0,0,1-.865-.479l-1.444-2.293a.388.388,0,1,1,.656-.413l1.444,2.293a.246.246,0,0,0,.231.115.255.255,0,0,0,.117-.041l1.952-1.069a.374.374,0,0,0,.113-.561h0a.374.374,0,0,0-.335-.139l-.41.047a.388.388,0,0,1-.3-.1L117.75,10a.388.388,0,1,1,.517-.578l1.1.982.667-.077a.385.385,0,0,1,.357.156l.128.176.65-.078a.775.775,0,0,1,.774.4l1.313,2.427a.775.775,0,0,0,.446.37l.472.166c0-.076.006-.152.006-.229A12.016,12.016,0,0,0,113.561,1.783Zm5.02,6.633a.387.387,0,0,1-.538-.1l-.807-1.2a.387.387,0,1,1,.642-.434l.807,1.2A.387.387,0,0,1,118.581,8.416Z" transform="translate(-100.146 -1.699)" fill="#bee86e"/>
    <path id="Path_37" data-name="Path 37" d="M15.958,56.248A12.017,12.017,0,0,1,5.722,37.936,12.017,12.017,0,1,0,22.253,54.467,11.958,11.958,0,0,1,15.958,56.248Z" transform="translate(0 -36.155)" fill="#00c3ff"/>
    <g id="Group_1" data-name="Group 1" transform="translate(8.346 0.243)">
      <path id="Path_38" data-name="Path 38" d="M359.612,350.892a.388.388,0,0,1-.3-.637l1.018-1.211a.388.388,0,0,1,.594.5l-1.018,1.211A.387.387,0,0,1,359.612,350.892Z" transform="translate(-350.708 -332.77)" fill="#bee86e"/>
      <path id="Path_39" data-name="Path 39" d="M178.16,5.393l-.345,1.028a.388.388,0,0,0,.735.247l.5-1.5C178.75,5.233,178.453,5.309,178.16,5.393Z" transform="translate(-177.794 -5.171)" fill="#bee86e"/>
    </g>
    <path id="Path_40" data-name="Path 40" d="M2.967,283.586l.335-3.047a.775.775,0,0,0-.232-.644L1,277.96A11.945,11.945,0,0,0,2.967,283.586Z" transform="translate(-0.954 -264.913)" fill="#afd755"/>
    <path id="Path_41" data-name="Path 41" d="M228.452,0a12.143,12.143,0,0,0-1.286.069l-.04.91a.581.581,0,1,0,1.1.368l.447-1.341C228.6,0,228.527,0,228.452,0Z" transform="translate(-216.436)" fill="#bee86e"/>
  </g>
</svg>
