<svg id="_1946433" data-name="1946433" xmlns="http://www.w3.org/2000/svg" width="24.031" height="24.033" viewBox="0 0 24.031 24.033">
  <path id="Path_34" data-name="Path 34" d="M23.386,10.453l0,0-9.8-9.8a2.212,2.212,0,0,0-3.129,0l-9.8,9.8-.01.01a2.212,2.212,0,0,0,1.472,3.77c.023,0,.045,0,.068,0h.391v7.215a2.592,2.592,0,0,0,2.59,2.589H9a.7.7,0,0,0,.7-.7V17.672a1.183,1.183,0,0,1,1.182-1.181h2.262a1.183,1.183,0,0,1,1.181,1.181v5.656a.7.7,0,0,0,.7.7h3.836a2.592,2.592,0,0,0,2.59-2.589V14.229h.362a2.213,2.213,0,0,0,1.566-3.776Zm0,0" transform="translate(0 0.001)" fill="#1de8f1"/>
  <path id="Path_35" data-name="Path 35" d="M267.343,10.453l0,0-9.8-9.8A2.2,2.2,0,0,0,255.973,0h0V16.491H257.1a1.183,1.183,0,0,1,1.181,1.181v5.656a.7.7,0,0,0,.7.7h3.836a2.592,2.592,0,0,0,2.59-2.589V14.229h.362a2.213,2.213,0,0,0,1.566-3.776Zm0,0" transform="translate(-243.957 0.001)" fill="#00c7ce"/>
</svg>
