<svg id="_1946369" data-name="1946369" xmlns="http://www.w3.org/2000/svg" width="24.033" height="24.033" viewBox="0 0 24.033 24.033">
  <path id="Path_26" data-name="Path 26" d="M20.513,3.52A12.017,12.017,0,0,0,3.519,20.514,12.017,12.017,0,0,0,20.513,3.52Zm0,0" transform="translate(0.001)" fill="#1de8f1"/>
  <path id="Path_27" data-name="Path 27" d="M264.5,3.52A11.938,11.938,0,0,0,256,0V24.033A12.017,12.017,0,0,0,264.5,3.52Zm0,0" transform="translate(-243.983)" fill="#00c7ce"/>
  <path id="Path_28" data-name="Path 28" d="M114.579,123.454a7.479,7.479,0,0,0-2.176-1.373,5.229,5.229,0,1,0-5.7,0,7.5,7.5,0,0,0-4.364,4.9,10.587,10.587,0,0,0,14.426,0,7.487,7.487,0,0,0-2.187-3.524Zm0,0" transform="translate(-97.537 -107.19)" fill="#e7f0ef"/>
  <path id="Path_29" data-name="Path 29" d="M261.026,123.454a7.479,7.479,0,0,0-2.176-1.373A5.228,5.228,0,0,0,256,112.469v17.346a10.568,10.568,0,0,0,7.213-2.837,7.487,7.487,0,0,0-2.187-3.524Zm0,0" transform="translate(-243.984 -107.19)" fill="#c5e1e6"/>
</svg>
