<svg id="_1706549" data-name="1706549" xmlns="http://www.w3.org/2000/svg" width="33.441" height="24.027" viewBox="0 0 33.441 24.027">
  <path id="Path_1" data-name="Path 1" d="M248.152,63.523a.5.5,0,0,1-.5-.5V57.964a.5.5,0,0,1,1.006,0V63.02A.5.5,0,0,1,248.152,63.523Zm0,0" transform="translate(-231.474 -53.741)" fill="#ee4a84"/>
  <path id="Path_2" data-name="Path 2" d="M233.63,144.194A1.632,1.632,0,1,1,232,142.563,1.632,1.632,0,0,1,233.63,144.194Zm0,0" transform="translate(-215.321 -133.284)" fill="#0470b2"/>
  <path id="Path_3" data-name="Path 3" d="M217.659,195.355a2.832,2.832,0,1,1-2.832-2.832A2.832,2.832,0,0,1,217.659,195.355Zm0,0" transform="translate(-198.149 -179.981)" fill="#fab700"/>
  <path id="Path_4" data-name="Path 4" d="M126.327,28.187a.5.5,0,0,1-.5-.5V22.628a.5.5,0,0,1,1.006,0v5.056A.5.5,0,0,1,126.327,28.187Zm0,0" transform="translate(-117.606 -20.713)" fill="#ee4a84"/>
  <path id="Path_5" data-name="Path 5" d="M368.437,6.561a.5.5,0,0,1-.5-.5V1a.5.5,0,1,1,1.006,0V6.058A.5.5,0,0,1,368.437,6.561Zm0,0" transform="translate(-343.902 -0.5)" fill="#ee4a84"/>
  <path id="Path_6" data-name="Path 6" d="M95.173,112.781H92.4a1.389,1.389,0,0,1-1.389-1.389v-2.776a1.389,1.389,0,0,1,1.389-1.389h2.776a1.389,1.389,0,0,1,1.389,1.389v2.776A1.389,1.389,0,0,1,95.173,112.781Zm0,0" transform="translate(-85.063 -100.256)" fill="#f7c6ba"/>
  <path id="Path_7" data-name="Path 7" d="M80.756,194.117H74.107a.6.6,0,0,1-.6-.6v-.66a.6.6,0,0,1,.6-.6h6.649a.6.6,0,0,1,.6.6v.66A.6.6,0,0,1,80.756,194.117Zm0,0" transform="translate(-68.71 -179.741)" fill="#1dc2ff"/>
  <path id="Path_8" data-name="Path 8" d="M89.878,223.19H84.6a.6.6,0,0,1-.6-.6v-1.4a.6.6,0,0,1,.6-.6h5.278a.6.6,0,0,1,.6.6v1.4A.6.6,0,0,1,89.878,223.19Zm0,0" transform="translate(-78.517 -206.225)" fill="#fab700"/>
  <path id="Path_9" data-name="Path 9" d="M337.279,180.745H334.5a1.389,1.389,0,0,1-1.389-1.389V176.58a1.389,1.389,0,0,1,1.389-1.389h2.776a1.389,1.389,0,0,1,1.389,1.389v2.776A1.389,1.389,0,0,1,337.279,180.745Zm0,0" transform="translate(-311.356 -163.781)" fill="#f7c6ba"/>
  <path id="Path_10" data-name="Path 10" d="M331.986,88.189h-5.278a.6.6,0,0,1-.6-.6V86.2a.6.6,0,0,1,.6-.6h5.278a.6.6,0,0,1,.6.6v1.4A.6.6,0,0,1,331.986,88.189Zm0,0" transform="translate(-304.813 -80.043)" fill="#fab700"/>
  <path id="Path_11" data-name="Path 11" d="M353.915,126.862a1.632,1.632,0,1,1-1.632-1.632A1.632,1.632,0,0,1,353.915,126.862Zm0,0" transform="translate(-327.749 -117.084)" fill="#0470b2"/>
  <path id="Path_12" data-name="Path 12" d="M122.947,107.227h-2.185a1.426,1.426,0,0,1,1.426,1.426v2.7a1.426,1.426,0,0,1-1.426,1.426h2.185a1.426,1.426,0,0,0,1.426-1.426v-2.7A1.426,1.426,0,0,0,122.947,107.227Zm0,0" transform="translate(-112.874 -100.256)" fill="#f4ada5"/>
  <path id="Path_13" data-name="Path 13" d="M365.056,175.191h-2.185a1.426,1.426,0,0,1,1.426,1.426v2.7a1.426,1.426,0,0,1-1.426,1.426h2.185a1.426,1.426,0,0,0,1.426-1.426v-2.7A1.426,1.426,0,0,0,365.056,175.191Zm0,0" transform="translate(-339.17 -163.781)" fill="#f4ada5"/>
  <path id="Path_14" data-name="Path 14" d="M146.516,220.6h-1.9a.611.611,0,0,1,.612.612v1.365a.611.611,0,0,1-.612.611h1.9a.611.611,0,0,0,.611-.611v-1.365A.611.611,0,0,0,146.516,220.6Zm0,0" transform="translate(-135.172 -206.226)" fill="#faa200"/>
  <path id="Path_15" data-name="Path 15" d="M388.625,85.6h-1.9a.611.611,0,0,1,.611.611v1.366a.611.611,0,0,1-.611.611h1.9a.611.611,0,0,0,.612-.611V86.213A.611.611,0,0,0,388.625,85.6Zm0,0" transform="translate(-361.467 -80.043)" fill="#faa200"/>
  <path id="Path_16" data-name="Path 16" d="M356.862,125.3a1.631,1.631,0,0,1-1.32,2.59c-.041,0-.081,0-.12,0a1.631,1.631,0,1,0,1.44-2.585Zm0,0" transform="translate(-332.208 -117.153)" fill="#005ca0"/>
  <path id="Path_17" data-name="Path 17" d="M159,192.266h-1.759a.611.611,0,0,1,.611.611v.628a.611.611,0,0,1-.611.611H159a.611.611,0,0,0,.611-.611v-.628A.611.611,0,0,0,159,192.266Zm0,0" transform="translate(-146.972 -179.741)" fill="#00a2ff"/>
  <path id="Path_18" data-name="Path 18" d="M236.577,142.637a1.631,1.631,0,0,1-1.32,2.59c-.041,0-.081,0-.12,0a1.631,1.631,0,1,0,1.44-2.585Zm0,0" transform="translate(-219.779 -133.353)" fill="#005ca0"/>
  <path id="Path_19" data-name="Path 19" d="M242.715,192.523a2.83,2.83,0,0,0-.883.141,2.832,2.832,0,0,1,0,5.381,2.832,2.832,0,1,0,.883-5.522Zm0,0" transform="translate(-226.037 -179.981)" fill="#faa200"/>
  <path id="Path_20" data-name="Path 20" d="M71.1,288.626H49.323a2.748,2.748,0,0,1-2.748-2.748v-2.823H73.847v2.823a2.748,2.748,0,0,1-2.748,2.748Zm0,0" transform="translate(-43.533 -264.599)" fill="#ed500a"/>
  <path id="Path_21" data-name="Path 21" d="M74.106,283.055v1.163a2.821,2.821,0,0,1-2.821,2.821H50.918a2.822,2.822,0,0,0,2.538,1.587h21.63a2.821,2.821,0,0,0,2.821-2.821v-2.75Zm0,0" transform="translate(-47.592 -264.6)" fill="#d1390a"/>
  <path id="Path_22" data-name="Path 22" d="M32.919,262.7H.523A.523.523,0,0,1,0,262.176v-1.423a.523.523,0,0,1,.523-.523h32.4a.523.523,0,0,1,.523.523v1.423A.523.523,0,0,1,32.919,262.7Zm0,0" transform="translate(0 -243.266)" fill="#ff6914"/>
  <path id="Path_23" data-name="Path 23" d="M444.586,260.23h-4.137a.537.537,0,0,1,.536.537v1.4a.536.536,0,0,1-.536.536h4.137a.536.536,0,0,0,.537-.536v-1.4A.537.537,0,0,0,444.586,260.23Zm0,0" transform="translate(-411.681 -243.266)" fill="#ed500a"/>
</svg>
